<svg version="1.0"
  xmlns="http://www.w3.org/2000/svg" viewBox="0 0 700 700">
  <path d="M323 39.7c-73.9 7-140.9 38.3-193 90.3-50.2 50-81.3 114.7-89.5 186-1.7 15.5-2 48.7-.5 64.1 11.6 117.6 87.8 217.8 198 260.7 67 26.1 145.8 27.5 213.6 3.8 46-16 83.7-39.8 118.4-74.6 22.5-22.5 37.4-42 52-68 40.5-72.1 50.4-159.4 27-239.3-24-82-80.5-150.4-156.4-189.3-32.1-16.4-61.4-25.9-98.1-31.6-10.1-1.6-19-2.1-40-2.3-14.8-.1-29-.1-31.5.2zm-8.9 140.9c10.1 3 13.2 5.4 35.9 27.9 13.7 13.5 24.3 23.2 27 24.6l4.5 2.4 66 .5 66 .5 4.7 2.3c6.3 3.1 12.4 10.2 14.3 16.5.9 2.9 1.5 9 1.5 14.3v9.2l10.8.4c9 .2 11.5.7 15.5 2.8 10 5 16 14.9 16 26 0 5.7-3.5 17.9-29.2 101-16.1 52-29.7 95.3-30.3 96.3-2.1 4.1-8.4 10-13.2 12.5l-5.1 2.7-135.8.3c-150.8.3-142.4.6-155.8-6.4-7.6-4-15.7-11.4-20.1-18.4-1.6-2.5-4.1-8.1-5.6-12.5l-2.7-8-.3-135.9c-.3-155.4-1.1-141.9 8.7-151.7 9.1-9.1 6.5-8.7 68.2-8.8 46.5-.1 54.3.1 59 1.5z"/>
</svg>
